HIERARCHY
ROOT Hips
{
	OFFSET 0.000000 0.000000 0.000000
	CHANNELS 6 Xposition Yposition Zposition Zrotation Yrotation Xrotation
	JOINT LHipJoint
	{
		OFFSET 0.000000 0.000000 0.000000
		CHANNELS 3 Zrotation Yrotation Xrotation
		JOINT LeftHip
		{
			OFFSET 0.070429 -0.092715 0.040477
			CHANNELS 3 Zrotation Yrotation Xrotation
			JOINT LeftKnee
			{
				OFFSET 0.140731 -0.386656 0.000000
				CHANNELS 3 Zrotation Yrotation Xrotation
				JOINT LeftAnkle
				{
					OFFSET 0.133642 -0.367180 0.000000
					CHANNELS 3 Zrotation Yrotation Xrotation
					JOINT LeftToe
					{
						OFFSET 0.008365 -0.022983 0.124964
						CHANNELS 3 Zrotation Yrotation Xrotation
						End Site
						{
							OFFSET 0.000000 0.000000 0.064059
						}
					}
				}
			}
		}
	}
	JOINT RHipJoint
	{
		OFFSET 0.000000 0.000000 0.000000
		CHANNELS 3 Zrotation Yrotation Xrotation
		JOINT RightHip
		{
			OFFSET -0.066785 -0.092715 0.040477
			CHANNELS 3 Zrotation Yrotation Xrotation
			JOINT RightKnee
			{
				OFFSET -0.139168 -0.382361 0.000000
				CHANNELS 3 Zrotation Yrotation Xrotation
				JOINT RightAnkle
				{
					OFFSET -0.134591 -0.369785 0.000000
					CHANNELS 3 Zrotation Yrotation Xrotation
					JOINT RightToe
					{
						OFFSET -0.009852 -0.027067 0.114539
						CHANNELS 3 Zrotation Yrotation Xrotation
						End Site
						{
							OFFSET 0.000000 0.000000 0.059309
						}
					}
				}
			}
		}
	}
	JOINT lowerback
	{
		OFFSET 0.000000 0.000000 0.000000
		CHANNELS 3 Zrotation Yrotation Xrotation
		JOINT Chest
		{
			OFFSET -0.001301 0.112132 0.000180
			CHANNELS 3 Zrotation Yrotation Xrotation
			JOINT Chest2
			{
				OFFSET -0.000405 0.112342 -0.000301
				CHANNELS 3 Zrotation Yrotation Xrotation
				JOINT lowerneck
				{
					OFFSET 0.000000 0.000000 0.000000
					CHANNELS 3 Zrotation Yrotation Xrotation
					JOINT Neck
					{
						OFFSET 0.000054 0.090883 0.006038
						CHANNELS 3 Zrotation Yrotation Xrotation
						JOINT Head
						{
							OFFSET -0.000598 0.090268 0.000743
							CHANNELS 3 Zrotation Yrotation Xrotation
							End Site
							{
								OFFSET -0.000259 0.092175 -0.000334
							}
						}
					}
				}
				JOINT LeftCollar
				{
					OFFSET 0.000000 0.000000 0.000000
					CHANNELS 3 Zrotation Yrotation Xrotation
					JOINT LeftShoulder
					{
						OFFSET 0.172369 0.083022 -0.000958
						CHANNELS 3 Zrotation Xrotation Yrotation
						JOINT LeftElbow
						{
							OFFSET 0.000000 -0.239947 0.000000
							CHANNELS 3 Zrotation Xrotation Yrotation
							JOINT LeftWrist
							{
								OFFSET 0.000000 -0.184906 0.000000
								CHANNELS 3 Zrotation Xrotation Yrotation
								JOINT lhand
								{
									OFFSET 0.000000 0.000000 0.000000
									CHANNELS 3 Zrotation Xrotation Yrotation
									JOINT LFingers
									{
										OFFSET 0.000000 -0.037129 0.000000
										CHANNELS 3 Zrotation Xrotation Yrotation
										End Site
										{
											OFFSET 0.000000 -0.029935 0.000000
										}
									}
								}
								JOINT LThumb
								{
									OFFSET 0.000000 0.000000 0.000000
									CHANNELS 3 Zrotation Xrotation Yrotation
									End Site
									{
										OFFSET 0.000000 -0.030392 0.030392
									}
								}
							}
						}
					}
				}
				JOINT RightCollar
				{
					OFFSET 0.000000 0.000000 0.000000
					CHANNELS 3 Zrotation Yrotation Xrotation
					JOINT RightShoulder
					{
						OFFSET -0.160129 0.074291 -0.012798
						CHANNELS 3 Zrotation Xrotation Yrotation
						JOINT RightElbow
						{
							OFFSET 0.000000 -0.251781 0.000000
							CHANNELS 3 Zrotation Xrotation Yrotation
							JOINT RightWrist
							{
								OFFSET 0.000000 -0.194402 0.000000
								CHANNELS 3 Zrotation Xrotation Yrotation
								JOINT rhand
								{
									OFFSET 0.000000 0.000000 0.000000
									CHANNELS 3 Zrotation Xrotation Yrotation
									JOINT RFingers
									{
										OFFSET 0.000000 -0.034798 0.000000
										CHANNELS 3 Zrotation Xrotation Yrotation
										End Site
										{
											OFFSET 0.000000 -0.028055 0.000000
										}
									}
								}
								JOINT RThumb
								{
									OFFSET 0.000000 0.000000 0.000000
									CHANNELS 3 Zrotation Xrotation Yrotation
									End Site
									{
										OFFSET 0.000000 -0.028484 0.028484
									}
								}
							}
						}
					}
				}
			}
		}
	}
}
MOTION
Frames: 12
Frame Time: 0.008333
0.291945 0.955998 -1.644011 -2.266100 1.947400 8.380801 -0.000001 -0.000000 0.000004 -19.247096 -4.931501 -19.794395 2.979206 10.661302 31.146107 0.961195 3.898998 -20.319504 0.710104 5.385506 15.011395 0.000003 -0.000001 0.000004 20.076914 10.972106 -14.254496 -2.669386 -10.139598 29.429998 -1.275006 1.598100 -20.882497 -7.304790 -15.583316 50.018097 0.390500 0.538800 -6.822101 1.046200 0.665000 -1.634900 0.914200 0.332800 2.130101 -1.972600 -1.947900 -7.860700 2.733100 -2.474499 -0.220099 1.104100 -1.181200 1.325099 0.000002 0.000001 -0.000000 2.124206 8.541415 -46.182003 23.032305 -34.124103 7.156417 10.614907 -6.874003 -1.141095 -0.000001 0.000001 0.000002 -7.125004 -0.000002 0.000001 -12.647496 30.989412 -4.426111 -0.000002 0.000000 -0.000000 0.279701 6.730407 31.650892 -16.964503 -26.810914 -4.071305 -32.618716 28.570702 14.218008 -0.000002 -0.000002 0.000001 7.125004 -0.000002 -0.000001 -4.913207 46.662811 0.202113 
0.291742 0.956111 -1.643898 -2.288200 1.843400 8.483900 -0.000004 -0.000001 0.000000 -19.276896 -4.011103 -20.356595 2.998011 10.691803 31.247508 0.863796 4.494196 -19.741098 0.187903 2.791600 7.699099 0.000003 -0.000003 0.000001 20.085011 10.999709 -14.283002 -2.634586 -10.078600 29.231605 -1.252104 1.413199 -20.737800 -7.205682 -15.502718 49.648194 0.401800 0.578800 -6.905200 1.057300 0.716400 -1.656900 0.924500 0.358500 2.153001 -2.018800 -1.953000 -7.879201 2.790600 -2.478400 -0.212501 1.130100 -1.181800 1.332799 0.000001 -0.000000 -0.000000 2.143607 8.510114 -46.242600 23.056509 -34.150502 7.170014 10.568202 -6.856103 -1.477798 0.000002 0.000000 -0.000002 -7.125004 0.000001 -0.000005 -12.730694 31.322517 -4.352208 -0.000002 0.000000 0.000000 0.226202 6.691306 31.588788 -16.961803 -26.807406 -4.070108 -32.609809 28.530709 14.046207 -0.000001 0.000001 -0.000001 7.124999 0.000001 -0.000000 -4.912906 46.462294 0.177711 
0.291195 0.956991 -1.643378 -2.263600 2.035500 8.356200 -0.000003 0.000002 0.000001 -19.070995 -4.392702 -19.911496 2.997908 10.691602 31.246708 1.001796 3.068793 -20.248396 0.520203 4.622704 12.835397 0.000003 -0.000001 0.000001 20.173917 11.113907 -13.966202 -2.629088 -10.068997 29.200397 -1.289410 1.266198 -21.091904 -7.210487 -15.506616 49.666001 0.264600 0.503700 -6.859502 1.094400 0.625000 -1.599000 1.031800 0.312100 2.186500 -1.970200 -1.980499 -7.949201 2.721800 -2.517900 -0.150701 1.098000 -1.202200 1.363700 0.000002 -0.000000 0.000000 2.151105 8.488517 -46.244199 23.033312 -34.125302 7.157020 10.646307 -6.812002 -1.686695 -0.000000 -0.000000 -0.000002 -7.125004 -0.000002 -0.000001 -12.698799 31.531811 -4.275315 -0.000002 0.000000 0.000001 0.182499 6.654008 31.566795 -16.981008 -26.832813 -4.078808 -28.706213 28.269304 16.034112 -0.000000 -0.000002 -0.000000 7.125004 0.000000 0.000003 -0.948807 48.119407 0.073013 
0.291008 0.956218 -1.643322 -2.276400 1.926600 8.486201 -0.000003 -0.000001 0.000000 -19.267103 -3.347803 -20.617592 2.997213 10.690601 31.243304 0.865893 4.123797 -19.537698 0.103897 2.078700 5.723098 0.000000 -0.000003 0.000001 20.148606 11.164101 -14.134600 -2.626180 -10.063900 29.183797 -1.256304 0.601498 -21.007599 -6.690289 -15.065413 47.692892 0.300900 0.538100 -6.973202 1.093700 0.667399 -1.619600 1.015600 0.333400 2.228400 -1.967300 -1.982600 -7.978499 2.717900 -2.520400 -0.152701 1.096000 -1.203300 1.368100 -0.000003 0.000000 -0.000000 2.142805 8.442516 -46.202200 23.011614 -34.101502 7.144818 10.671506 -6.736003 -1.733000 -0.000004 0.000001 0.000001 -7.125007 -0.000001 0.000003 -12.685498 31.578410 -4.256111 -0.000004 -0.000000 -0.000001 0.109398 6.660308 31.662397 -17.060206 -26.937009 -4.114611 -28.646609 28.289207 16.212706 0.000001 0.000002 -0.000000 7.125005 0.000000 -0.000001 -0.866710 48.309112 0.070814 
0.290427 0.956421 -1.643356 -2.284500 2.022800 8.453399 -0.000002 0.000004 0.000001 -19.141691 -3.933599 -20.333699 3.000010 10.695000 31.258105 0.905597 3.984396 -19.841095 0.231099 3.094202 8.541101 0.000001 -0.000003 0.000001 20.242708 11.455204 -13.939202 -2.617983 -10.049398 29.136904 -1.273805 0.139698 -21.303799 -6.554190 -14.944717 47.167394 0.178800 0.539300 -7.136000 1.129099 0.673599 -1.451900 1.124600 0.334800 2.489900 -1.936100 -2.035400 -7.995199 2.696300 -2.589499 -0.317300 1.081100 -1.238600 1.318699 0.000001 -0.000000 0.000000 2.175906 8.147113 -46.364499 23.004309 -34.093501 7.140716 10.771704 -6.599700 -2.456898 0.000000 0.000000 0.000002 -7.125004 0.000000 0.000003 -12.711390 32.300009 -4.038708 -0.000002 0.000000 0.000000 0.066202 6.453808 31.614200 -17.122806 -27.019308 -4.143004 -29.344115 28.280502 15.861608 0.000002 -0.000001 0.000001 7.125003 0.000000 0.000000 -1.592803 48.027004 0.119013 
0.289958 0.956393 -1.643367 -2.317500 2.049800 8.467400 -0.000002 -0.000001 0.000003 -19.082796 -3.869801 -20.386795 2.993508 10.684502 31.223209 0.890498 4.096293 -19.761397 0.193803 2.835102 7.820095 0.000000 -0.000001 0.000001 20.324917 11.717311 -13.889900 -2.629888 -10.070300 29.204704 -1.289107 -0.177901 -21.540006 -6.428787 -14.831312 46.679193 0.131001 0.541099 -7.198999 1.161999 0.677500 -1.394300 1.187100 0.335900 2.583400 -1.925100 -2.062500 -8.023398 2.684300 -2.625200 -0.361301 1.074000 -1.256500 1.309800 0.000002 0.000000 -0.000000 2.188907 8.016814 -46.404298 22.980004 -34.066900 7.127117 10.833705 -6.513402 -2.758601 0.000000 -0.000001 -0.000001 -7.125001 -0.000002 -0.000001 -12.707295 32.601418 -3.942611 -0.000004 -0.000000 -0.000000 0.016900 6.357707 31.606195 -17.163109 -27.072310 -4.161310 -29.005508 28.226506 16.051708 0.000002 0.000000 0.000000 7.125002 0.000001 0.000001 -1.238608 48.186308 0.097407 
0.289462 0.956342 -1.643435 -2.362200 2.075600 8.481301 0.000001 -0.000000 0.000002 -19.001089 -3.904399 -20.429789 2.996408 10.689201 31.238601 0.880794 4.229996 -19.746695 0.176601 2.707202 7.464700 -0.000003 -0.000000 0.000003 20.428005 12.006704 -13.791406 -2.626690 -10.064699 29.186501 -1.302704 -0.506004 -21.770203 -6.346588 -14.756014 46.357392 0.090500 0.541900 -7.242702 1.199000 0.679700 -1.344400 1.249100 0.336300 2.658300 -1.915900 -2.088999 -8.050800 2.670000 -2.659900 -0.393800 1.066400 -1.274000 1.304500 -0.000001 -0.000000 -0.000000 2.200406 7.895815 -46.424796 22.943307 -34.026705 7.106519 10.900106 -6.425104 -3.008096 0.000000 0.000004 0.000003 -7.125005 0.000003 0.000001 -12.692297 32.851513 -3.859208 -0.000002 0.000000 -0.000000 -0.029098 6.264007 31.599894 -17.196208 -27.115610 -4.176409 -28.808816 28.188708 16.174009 -0.000000 0.000001 -0.000002 7.125004 0.000000 -0.000001 -1.030410 48.291715 0.083710 
0.288971 0.956274 -1.643531 -2.412700 2.086800 8.504700 -0.000002 -0.000001 0.000003 -18.916600 -3.971903 -20.469694 2.997206 10.690505 31.243106 0.866493 4.434295 -19.730296 0.158102 2.562102 7.061801 0.000003 -0.000000 0.000003 20.532116 12.317007 -13.715898 -2.627888 -10.066798 29.193198 -1.318502 -0.791103 -22.006601 -6.294687 -14.708015 46.153289 0.061900 0.544600 -7.270300 1.235600 0.683800 -1.310800 1.304100 0.337700 2.707500 -1.915000 -2.112599 -8.076898 2.660300 -2.690599 -0.405901 1.061900 -1.289400 1.305700 0.000004 0.000000 -0.000000 2.210905 7.795815 -46.420305 22.895807 -33.974703 7.080015 10.948506 -6.351402 -3.145398 0.000000 -0.000001 -0.000002 -7.125004 -0.000001 -0.000002 -12.674796 32.989612 -3.810317 -0.000004 0.000000 0.000000 -0.071100 6.182408 31.595198 -17.219810 -27.146710 -4.187110 -28.841215 28.182006 16.176711 -0.000001 0.000000 0.000000 7.125002 -0.000001 -0.000002 -1.061817 48.299901 0.086408 
0.288497 0.956263 -1.643610 -2.462200 2.097300 8.525801 -0.000004 -0.000001 0.000003 -18.820494 -4.110602 -20.467794 2.998507 10.692601 31.250106 0.860995 4.585398 -19.769501 0.160101 2.577904 7.105800 0.000001 -0.000000 0.000003 20.636303 12.624503 -13.631504 -2.627886 -10.066800 29.193403 -1.336406 -1.036804 -22.246901 -6.273791 -14.688513 46.070794 0.036000 0.543600 -7.279699 1.271600 0.683100 -1.291000 1.356100 0.336900 2.732401 -1.921900 -2.133400 -8.100101 2.653899 -2.717300 -0.394001 1.059900 -1.302700 1.314200 0.000002 -0.000000 0.000000 2.218005 7.720515 -46.389805 22.834912 -33.907805 7.046018 10.992103 -6.284501 -3.212997 -0.000001 -0.000001 0.000004 -7.125004 -0.000002 0.000004 -12.650394 33.058307 -3.781206 -0.000004 0.000000 0.000000 -0.109700 6.117706 31.591592 -17.232909 -27.163813 -4.193105 -28.870516 28.179706 16.172508 -0.000000 -0.000001 -0.000001 7.125009 -0.000004 -0.000000 -1.091012 48.299809 0.088810 
0.288062 0.956235 -1.643649 -2.506200 2.091700 8.553600 0.000000 -0.000002 0.000002 -18.738494 -4.236901 -20.474595 2.999508 10.694300 31.255707 0.852696 4.770996 -19.804798 0.156004 2.544998 7.014501 0.000003 -0.000004 -0.000001 20.725313 12.899210 -13.566001 -2.627285 -10.065698 29.189899 -1.350807 -1.257905 -22.451395 -6.248489 -14.665015 45.971295 0.020400 0.544700 -7.284099 1.302300 0.684700 -1.285500 1.396700 0.337400 2.740000 -1.936600 -2.150500 -8.122000 2.650900 -2.739000 -0.359600 1.060500 -1.313300 1.329801 0.000001 -0.000000 0.000000 2.222505 7.668314 -46.334702 22.764109 -33.829804 7.006519 11.022301 -6.227500 -3.206498 -0.000000 -0.000001 0.000001 -7.125005 0.000001 -0.000002 -12.625295 33.052911 -3.775009 -0.000000 -0.000000 -0.000000 -0.144300 6.070607 31.589492 -17.238503 -27.171114 -4.195705 -28.890010 28.184403 16.172904 0.000000 0.000000 -0.000003 7.125005 0.000000 -0.000003 -1.110011 48.303409 0.090507 
0.287689 0.956280 -1.643638 -2.539100 2.074200 8.585999 -0.000003 0.000002 0.000001 -18.665298 -4.376004 -20.466594 3.000412 10.695800 31.260608 0.852100 4.888895 -19.874401 0.164401 2.612502 7.201597 0.000001 -0.000002 0.000003 20.793406 13.126107 -13.515805 -2.625187 -10.061999 29.177902 -1.358504 -1.492304 -22.609000 -6.186089 -14.606315 45.724094 0.010300 0.544400 -7.275099 1.326300 0.684700 -1.299300 1.427000 0.337400 2.720300 -1.956300 -2.162599 -8.143201 2.645599 -2.753999 -0.295801 1.061400 -1.320600 1.354700 0.000001 0.000000 -0.000000 2.221407 7.647713 -46.247802 22.681808 -33.739003 6.960820 11.035804 -6.180599 -3.116496 0.000002 -0.000003 -0.000002 -7.125002 -0.000004 -0.000001 -12.600696 32.964009 -3.795114 -0.000000 0.000000 0.000000 -0.178900 6.055606 31.600994 -17.241609 -27.175212 -4.197110 -28.905518 28.188508 16.170405 0.000002 0.000003 -0.000003 7.125005 0.000001 -0.000004 -1.125612 48.303006 0.091705 
0.287345 0.956325 -1.643565 -2.558600 2.051000 8.618900 0.000000 0.000002 0.000000 -18.609702 -4.538705 -20.438595 3.000605 10.696005 31.261407 0.851694 5.029695 -19.960398 0.174900 2.694002 7.427998 0.000003 0.000001 0.000004 20.841610 13.310306 -13.476902 -2.622887 -10.057999 29.164703 -1.361507 -1.727405 -22.730402 -6.099288 -14.523914 45.378995 -0.005100 0.546200 -7.280201 1.344500 0.687800 -1.311600 1.454700 0.338800 2.710001 -1.977000 -2.174299 -8.161899 2.637600 -2.768499 -0.228000 1.061700 -1.327700 1.380501 0.000002 0.000001 0.000001 2.216503 7.623213 -46.156001 22.592813 -33.640502 6.911420 11.037003 -6.130702 -3.038299 -0.000002 0.000001 0.000000 -7.125004 -0.000000 0.000000 -12.587894 32.886411 -3.815314 -0.000002 0.000001 0.000000 -0.212003 6.042806 31.611591 -17.239508 -27.172412 -4.196106 -28.920711 28.192302 16.167912 -0.000002 -0.000001 0.000001 7.125003 0.000000 0.000003 -1.140711 48.302603 0.092913 
